<svg viewBox="0 0 1200 1360" xmlns="http://www.w3.org/2000/svg">
<title>The curl &#8212; how the wave gets over itself</title>
<desc>Four cross-sections show pitch, cusp, fold and the legacy throw-and-drop path; the second strip shows the default bend joined to its connected curtain, followed by measured evidence.</desc>
<!--
WCAG contrast ratios computed for this figure (see gen_curl.py):
  cream(#e6e4d2) on bg(#0f1216): 14.66:1  [PASS >=8:1]
  foam(#eef2f3) on bg(#0f1216): 16.66:1  [PASS >=8:1]
  cream(#e6e4d2) on kelp(#1d2b28): 11.48:1  [PASS >=8:1]
  foam(#eef2f3) on kelp(#1d2b28): 13.04:1  [PASS >=8:1]
  sand(#c9a86a) on bg(#0f1216): 8.31:1  [PASS >=8:1]
  foam-dim(#d8dcdd) on bg(#0f1216) [solid, no opacity]: 13.59:1  [PASS >=8:1]
Graphic-only colors (never used for text), for reference:
  teal(#4a8f85) on bg(#0f1216) [graphic only]: 4.97:1
  slate(#6b7f8c) on bg(#0f1216) [graphic only]: 4.51:1
  sand(#c9a86a) on kelp(#1d2b28) [avoid, use bg instead]: 6.51:1
Rule applied: readable text is cream/foam on bg or kelp only (>=11:1); sand is used for
text only directly on bg (8.31:1), never on kelp (6.51:1, would fail). Water fill, surface
strokes, arcs and leader lines use teal/slate and carry no text. 16px text floor throughout.
-->
<style>
  .curl-fg-text { fill: #e6e4d2; font-family: -apple-system, "Helvetica Neue", Arial, sans-serif; }
  .curl-foam-text { fill: #eef2f3; font-family: -apple-system, "Helvetica Neue", Arial, sans-serif; }
  .curl-foam-dim-text { fill: #d8dcdd; font-family: -apple-system, "Helvetica Neue", Arial, sans-serif; }
  .curl-sand-text { fill: #c9a86a; font-family: -apple-system, "Helvetica Neue", Arial, sans-serif; }
  .curl-mono { font-family: ui-monospace, Menlo, Consolas, monospace; }
  .curl-title { font-size: 27px; font-weight: 700; letter-spacing: 0.3px; }
  .curl-subtitle { font-size: 16px; }
  .curl-strip-label { font-size: 18px; font-weight: 700; letter-spacing: 1.5px; }
  .curl-panel-name { font-size: 17px; font-weight: 700; }
  .curl-eq { font-size: 16px; }
  .curl-caption { font-size: 16px; }
  .curl-annot { font-size: 16px; }
  .curl-annot-b { font-size: 16px; font-weight: 700; }
  .curl-stat-n { font-size: 21px; font-weight: 700; }
</style>
<rect width="1200" height="1360" fill="#0f1216"/>
<text class="curl-fg-text curl-title" font-family="Georgia, 'Times New Roman', serif" x="40" y="46">THE CURL &#8212; how the wave gets over itself</text>
<text class="curl-fg-text curl-subtitle" x="40" y="74">A height field carries one surface for every point on the seabed, so it can steepen to vertical and never past it. Getting past vertical takes a second mechanism.</text>
<text class="curl-foam-dim-text curl-subtitle" x="40" y="96">Every curve below is the shipped model&#8217;s own expression, evaluated here &#8212; none is drawn by hand. Schematic: &#923; = 70 m, a = 2.5 m, &#958; = 1.25, excess 1.0.</text>
<text class="curl-fg-text curl-strip-label" x="40" y="138">ONE CROSS-SECTION, FOUR MECHANISMS</text>
<line x1="40" y1="150" x2="1160" y2="150" stroke="#6b7f8c" stroke-width="1"/>
<text class="curl-foam-text curl-panel-name" x="40.0" y="182.0">1. PITCH ONLY</text>
<text class="curl-fg-text curl-eq curl-mono" x="40.0" y="204.0">h = a&#183;cos(&#952; &#8722; s(1&#8722;cos &#952;))</text>
<rect x="40.0" y="232.0" width="262.0" height="200.0" fill="none" stroke="#6b7f8c" stroke-width="1"/>
<line x1="40.0" y1="347.0" x2="302.0" y2="347.0" stroke="#6b7f8c" stroke-width="1" stroke-dasharray="4 4"/>
<path d="M 35.91 345.18 L 36.62 344.20 L 37.34 343.24 L 38.06 342.29 L 38.77 341.35 L 39.49 340.43 L 40.20 339.52 L 40.92 338.63 L 41.64 337.75 L 42.35 336.88 L 43.07 336.03 L 43.79 335.19 L 44.50 334.37 L 45.22 333.56 L 45.94 332.76 L 46.65 331.98 L 47.37 331.21 L 48.09 330.46 L 48.80 329.72 L 49.52 328.99 L 50.23 328.28 L 50.95 327.58 L 51.67 326.90 L 52.38 326.23 L 53.10 325.57 L 53.82 324.92 L 54.53 324.29 L 55.25 323.68 L 55.97 323.07 L 56.68 322.48 L 57.40 321.90 L 58.11 321.33 L 58.83 320.78 L 59.55 320.24 L 60.26 319.71 L 60.98 319.19 L 61.70 318.69 L 62.41 318.19 L 63.13 317.71 L 63.85 317.24 L 64.56 316.78 L 65.28 316.33 L 66.00 315.89 L 66.71 315.46 L 67.43 315.04 L 68.14 314.63 L 68.86 314.23 L 69.58 313.84 L 70.29 313.46 L 71.01 313.09 L 71.73 312.73 L 72.44 312.38 L 73.16 312.04 L 73.88 311.70 L 74.59 311.38 L 75.31 311.06 L 76.02 310.75 L 76.74 310.44 L 77.46 310.15 L 78.17 309.86 L 78.89 309.58 L 79.61 309.31 L 80.32 309.04 L 81.04 308.78 L 81.76 308.52 L 82.47 308.28 L 83.19 308.03 L 83.91 307.80 L 84.62 307.57 L 85.34 307.34 L 86.05 307.12 L 86.77 306.91 L 87.49 306.70 L 88.20 306.49 L 88.92 306.29 L 89.64 306.10 L 90.35 305.91 L 91.07 305.72 L 91.79 305.53 L 92.50 305.35 L 93.22 305.18 L 93.94 305.01 L 94.65 304.84 L 95.37 304.67 L 96.08 304.51 L 96.80 304.35 L 97.52 304.19 L 98.23 304.03 L 98.95 303.88 L 99.67 303.73 L 100.38 303.58 L 101.10 303.43 L 101.82 303.29 L 102.53 303.14 L 103.25 303.00 L 103.96 302.86 L 104.68 302.72 L 105.40 302.58 L 106.11 302.44 L 106.83 302.30 L 107.55 302.17 L 108.26 302.03 L 108.98 301.89 L 109.70 301.76 L 110.41 301.62 L 111.13 301.48 L 111.85 301.35 L 112.56 301.21 L 113.28 301.07 L 113.99 300.94 L 114.71 300.80 L 115.43 300.66 L 116.14 300.52 L 116.86 300.38 L 117.58 300.24 L 118.29 300.09 L 119.01 299.95 L 119.73 299.80 L 120.44 299.65 L 121.16 299.50 L 121.88 299.35 L 122.59 299.20 L 123.31 299.05 L 124.02 298.89 L 124.74 298.73 L 125.46 298.57 L 126.17 298.41 L 126.89 298.24 L 127.61 298.07 L 128.32 297.90 L 129.04 297.73 L 129.76 297.56 L 130.47 297.38 L 131.19 297.20 L 131.90 297.02 L 132.62 296.83 L 133.34 296.64 L 134.05 296.45 L 134.77 296.26 L 135.49 296.07 L 136.20 295.87 L 136.92 295.67 L 137.64 295.47 L 138.35 295.26 L 139.07 295.05 L 139.79 294.84 L 140.50 294.63 L 141.22 294.41 L 141.93 294.19 L 142.65 293.97 L 143.37 293.75 L 144.08 293.53 L 144.80 293.30 L 145.52 293.07 L 146.23 292.84 L 146.95 292.61 L 147.67 292.38 L 148.38 292.14 L 149.10 291.91 L 149.81 291.67 L 150.53 291.43 L 151.25 291.20 L 151.96 290.96 L 152.68 290.72 L 153.40 290.48 L 154.11 290.24 L 154.83 290.00 L 155.55 289.76 L 156.26 289.52 L 156.98 289.29 L 157.70 289.05 L 158.41 288.82 L 159.13 288.59 L 159.84 288.36 L 160.56 288.13 L 161.28 287.91 L 161.99 287.69 L 162.71 287.47 L 163.43 287.26 L 164.14 287.05 L 164.86 286.85 L 165.58 286.65 L 166.29 286.46 L 167.01 286.27 L 167.72 286.09 L 168.44 285.92 L 169.16 285.75 L 169.87 285.60 L 170.59 285.45 L 171.31 285.31 L 172.02 285.18 L 172.74 285.06 L 173.46 284.94 L 174.17 284.85 L 174.89 284.76 L 175.61 284.68 L 176.32 284.62 L 177.04 284.57 L 177.75 284.53 L 178.47 284.51 L 179.19 284.50 L 179.90 284.51 L 180.62 284.53 L 181.34 284.57 L 182.05 284.63 L 182.77 284.70 L 183.49 284.80 L 184.20 284.91 L 184.92 285.04 L 185.64 285.20 L 186.35 285.37 L 187.07 285.56 L 187.78 285.78 L 188.50 286.02 L 189.22 286.28 L 189.93 286.56 L 190.65 286.87 L 191.37 287.21 L 192.08 287.57 L 192.80 287.95 L 193.52 288.36 L 194.23 288.80 L 194.95 289.26 L 195.66 289.75 L 196.38 290.27 L 197.10 290.82 L 197.81 291.40 L 198.53 292.00 L 199.25 292.64 L 199.96 293.30 L 200.68 293.99 L 201.40 294.72 L 202.11 295.47 L 202.83 296.26 L 203.55 297.07 L 204.26 297.92 L 204.98 298.80 L 205.69 299.71 L 206.41 300.65 L 207.13 301.62 L 207.84 302.62 L 208.56 303.65 L 209.28 304.71 L 209.99 305.80 L 210.71 306.93 L 211.43 308.08 L 212.14 309.26 L 212.86 310.47 L 213.57 311.71 L 214.29 312.98 L 215.01 314.27 L 215.72 315.60 L 216.44 316.95 L 217.16 318.32 L 217.87 319.72 L 218.59 321.15 L 219.31 322.60 L 220.02 324.07 L 220.74 325.57 L 221.46 327.08 L 222.17 328.62 L 222.89 330.17 L 223.60 331.75 L 224.32 333.34 L 225.04 334.94 L 225.75 336.56 L 226.47 338.20 L 227.19 339.85 L 227.90 341.50 L 228.62 343.17 L 229.34 344.85 L 230.05 346.53 L 230.77 348.22 L 231.49 349.92 L 232.20 351.61 L 232.92 353.31 L 233.63 355.01 L 234.35 356.71 L 235.07 358.40 L 235.78 360.09 L 236.50 361.77 L 237.22 363.45 L 237.93 365.12 L 238.65 366.77 L 239.37 368.41 L 240.08 370.04 L 240.80 371.66 L 241.51 373.26 L 242.23 374.84 L 242.95 376.40 L 243.66 377.93 L 244.38 379.45 L 245.10 380.94 L 245.81 382.41 L 246.53 383.85 L 247.25 385.26 L 247.96 386.64 L 248.68 387.99 L 249.40 389.30 L 250.11 390.59 L 250.83 391.83 L 251.54 393.05 L 252.26 394.22 L 252.98 395.36 L 253.69 396.46 L 254.41 397.52 L 255.13 398.54 L 255.84 399.52 L 256.56 400.45 L 257.28 401.34 L 257.99 402.19 L 258.71 402.99 L 259.42 403.75 L 260.14 404.46 L 260.86 405.13 L 261.57 405.74 L 262.29 406.32 L 263.01 406.84 L 263.72 407.32 L 264.44 407.75 L 265.16 408.13 L 265.87 408.47 L 266.59 408.76 L 267.31 409.00 L 268.02 409.19 L 268.74 409.34 L 269.45 409.44 L 270.17 409.49 L 270.89 409.50 L 271.60 409.46 L 272.32 409.37 L 273.04 409.24 L 273.75 409.07 L 274.47 408.85 L 275.19 408.59 L 275.90 408.29 L 276.62 407.95 L 277.34 407.56 L 278.05 407.14 L 278.77 406.67 L 279.48 406.17 L 280.20 405.63 L 280.92 405.06 L 281.63 404.45 L 282.35 403.80 L 283.07 403.12 L 283.78 402.41 L 284.50 401.67 L 285.22 400.90 L 285.93 400.10 L 286.65 399.27 L 287.36 398.41 L 288.08 397.53 L 288.80 396.63 L 289.51 395.70 L 290.23 394.74 L 290.95 393.77 L 291.66 392.78 L 292.38 391.77 L 293.10 390.74 L 293.81 389.69 L 294.53 388.63 L 295.25 387.55 L 295.96 386.46 L 296.68 385.36 L 297.39 384.25 L 298.11 383.12 L 298.83 381.99 L 299.54 380.85 L 300.26 379.71 L 300.98 378.55 L 301.69 377.40 L 302.41 376.24 L 303.13 375.07 L 303.84 373.90 L 304.56 372.74 L 305.27 371.57 L 305.99 370.40 L 306.71 369.23 L 307.42 368.07 L 308.14 366.90 L 308.86 365.75 L 309.57 364.59 L 310.29 363.44 L 311.01 362.30 L 311.72 361.16 L 312.44 360.03 L 313.16 358.90 L 313.87 357.79 L 314.59 356.68 L 315.30 355.58 L 316.02 354.49 L 316.74 353.41 L 317.45 352.34 L 318.17 351.28 L 318.89 350.24 L 319.60 349.20 L 320.32 348.18 L 321.04 347.16 L 321.75 346.16 L 322.47 345.18 L 322.47 432.00 L 35.91 432.00 Z" fill="#1d2b28" fill-rule="nonzero" stroke="#4a8f85" stroke-width="2" stroke-linejoin="round"/>
<line x1="52.3" y1="248.2" x2="97.3" y2="248.2" stroke="#c9a86a" stroke-width="2"/>
<path d="M 98.3 248.2 l -7 -4.5 l 0 9 Z" fill="#c9a86a"/>
<text class="curl-sand-text curl-annot" x="106.3" y="253.2">shoreward</text>
<text class="curl-foam-dim-text curl-annot" x="48.0" y="339.0">still water</text>
<text class="curl-foam-dim-text curl-caption" x="40.0" y="458.0">The face leans shoreward and</text>
<text class="curl-foam-dim-text curl-caption" x="40.0" y="479.0">stops. For every z there is</text>
<text class="curl-foam-dim-text curl-caption" x="40.0" y="500.0">exactly one y, so no reparam-</text>
<text class="curl-foam-dim-text curl-caption" x="40.0" y="521.0">etrisation of h(&#952;) can overhang.</text>
<text class="curl-foam-text curl-panel-name" x="326.0" y="182.0">2. CHOPPY, S = 1</text>
<text class="curl-fg-text curl-eq curl-mono" x="326.0" y="204.0">z = z&#8320; + &#955;&#183;&#8706;h/&#8706;z&#8320;</text>
<text class="curl-fg-text curl-eq curl-mono" x="326.0" y="224.0">S := &#955;&#183;a&#183;k&#178;</text>
<rect x="326.0" y="232.0" width="262.0" height="200.0" fill="none" stroke="#6b7f8c" stroke-width="1"/>
<line x1="326.0" y1="347.0" x2="588.0" y2="347.0" stroke="#6b7f8c" stroke-width="1" stroke-dasharray="4 4"/>
<path d="M 367.49 345.18 L 367.61 344.20 L 367.72 343.24 L 367.82 342.29 L 367.91 341.35 L 367.99 340.43 L 368.07 339.52 L 368.15 338.63 L 368.22 337.75 L 368.29 336.88 L 368.35 336.03 L 368.41 335.19 L 368.47 334.37 L 368.53 333.56 L 368.59 332.76 L 368.66 331.98 L 368.72 331.21 L 368.78 330.46 L 368.85 329.72 L 368.92 328.99 L 368.99 328.28 L 369.07 327.58 L 369.15 326.90 L 369.24 326.23 L 369.33 325.57 L 369.42 324.92 L 369.53 324.29 L 369.63 323.68 L 369.75 323.07 L 369.87 322.48 L 370.00 321.90 L 370.14 321.33 L 370.28 320.78 L 370.43 320.24 L 370.59 319.71 L 370.75 319.19 L 370.93 318.69 L 371.11 318.19 L 371.31 317.71 L 371.51 317.24 L 371.71 316.78 L 371.93 316.33 L 372.16 315.89 L 372.39 315.46 L 372.64 315.04 L 372.89 314.63 L 373.15 314.23 L 373.43 313.84 L 373.71 313.46 L 374.00 313.09 L 374.30 312.73 L 374.60 312.38 L 374.92 312.04 L 375.25 311.70 L 375.58 311.38 L 375.93 311.06 L 376.28 310.75 L 376.64 310.44 L 377.01 310.15 L 377.39 309.86 L 377.78 309.58 L 378.18 309.31 L 378.58 309.04 L 379.00 308.78 L 379.42 308.52 L 379.86 308.28 L 380.30 308.03 L 380.75 307.80 L 381.20 307.57 L 381.67 307.34 L 382.14 307.12 L 382.63 306.91 L 383.12 306.70 L 383.61 306.49 L 384.12 306.29 L 384.64 306.10 L 385.16 305.91 L 385.69 305.72 L 386.23 305.53 L 386.77 305.35 L 387.33 305.18 L 387.89 305.01 L 388.46 304.84 L 389.03 304.67 L 389.62 304.51 L 390.21 304.35 L 390.81 304.19 L 391.41 304.03 L 392.02 303.88 L 392.64 303.73 L 393.27 303.58 L 393.90 303.43 L 394.54 303.29 L 395.19 303.14 L 395.84 303.00 L 396.50 302.86 L 397.17 302.72 L 397.84 302.58 L 398.52 302.44 L 399.21 302.30 L 399.90 302.17 L 400.60 302.03 L 401.31 301.89 L 402.02 301.76 L 402.74 301.62 L 403.46 301.48 L 404.19 301.35 L 404.92 301.21 L 405.66 301.07 L 406.41 300.94 L 407.16 300.80 L 407.91 300.66 L 408.68 300.52 L 409.44 300.38 L 410.21 300.24 L 410.99 300.09 L 411.77 299.95 L 412.55 299.80 L 413.34 299.65 L 414.14 299.50 L 414.94 299.35 L 415.74 299.20 L 416.54 299.05 L 417.35 298.89 L 418.16 298.73 L 418.98 298.57 L 419.80 298.41 L 420.62 298.24 L 421.44 298.07 L 422.27 297.90 L 423.10 297.73 L 423.93 297.56 L 424.76 297.38 L 425.60 297.20 L 426.43 297.02 L 427.27 296.83 L 428.11 296.64 L 428.94 296.45 L 429.78 296.26 L 430.62 296.07 L 431.46 295.87 L 432.29 295.67 L 433.13 295.47 L 433.96 295.26 L 434.80 295.05 L 435.63 294.84 L 436.45 294.63 L 437.28 294.41 L 438.10 294.19 L 438.92 293.97 L 439.74 293.75 L 440.55 293.53 L 441.36 293.30 L 442.16 293.07 L 442.95 292.84 L 443.74 292.61 L 444.53 292.38 L 445.30 292.14 L 446.07 291.91 L 446.84 291.67 L 447.59 291.43 L 448.34 291.20 L 449.07 290.96 L 449.80 290.72 L 450.51 290.48 L 451.22 290.24 L 451.92 290.00 L 452.60 289.76 L 453.27 289.52 L 453.93 289.29 L 454.57 289.05 L 455.20 288.82 L 455.82 288.59 L 456.42 288.36 L 457.01 288.13 L 457.58 287.91 L 458.13 287.69 L 458.67 287.47 L 459.19 287.26 L 459.69 287.05 L 460.18 286.85 L 460.64 286.65 L 461.08 286.46 L 461.51 286.27 L 461.91 286.09 L 462.29 285.92 L 462.65 285.75 L 462.99 285.60 L 463.31 285.45 L 463.60 285.31 L 463.87 285.18 L 464.11 285.06 L 464.33 284.94 L 464.53 284.85 L 464.70 284.76 L 464.85 284.68 L 464.96 284.62 L 465.06 284.57 L 465.12 284.53 L 465.16 284.51 L 465.18 284.50 L 465.16 284.51 L 465.12 284.53 L 465.06 284.57 L 464.96 284.63 L 464.84 284.70 L 464.69 284.80 L 464.51 284.91 L 464.31 285.04 L 464.07 285.20 L 463.82 285.37 L 463.53 285.56 L 463.22 285.78 L 462.88 286.02 L 462.52 286.28 L 462.13 286.56 L 461.72 286.87 L 461.28 287.21 L 460.82 287.57 L 460.33 287.95 L 459.83 288.36 L 459.30 288.80 L 458.75 289.26 L 458.18 289.75 L 457.59 290.27 L 456.99 290.82 L 456.37 291.40 L 455.73 292.00 L 455.08 292.64 L 454.41 293.30 L 453.73 293.99 L 453.05 294.72 L 452.35 295.47 L 451.64 296.26 L 450.93 297.07 L 450.22 297.92 L 449.50 298.80 L 448.78 299.71 L 448.06 300.65 L 447.35 301.62 L 446.64 302.62 L 445.93 303.65 L 445.23 304.71 L 444.54 305.80 L 443.87 306.93 L 443.21 308.08 L 442.56 309.26 L 441.93 310.47 L 441.33 311.71 L 440.74 312.98 L 440.18 314.27 L 439.65 315.60 L 439.14 316.95 L 438.67 318.32 L 438.23 319.72 L 437.82 321.15 L 437.45 322.60 L 437.12 324.07 L 436.83 325.57 L 436.59 327.08 L 436.39 328.62 L 436.23 330.17 L 436.13 331.75 L 436.08 333.34 L 436.08 334.94 L 436.13 336.56 L 436.24 338.20 L 436.41 339.85 L 436.64 341.50 L 436.93 343.17 L 437.29 344.85 L 437.70 346.53 L 438.18 348.22 L 438.73 349.92 L 439.35 351.61 L 440.03 353.31 L 440.78 355.01 L 441.60 356.71 L 442.50 358.40 L 443.46 360.09 L 444.49 361.77 L 445.60 363.45 L 446.77 365.12 L 448.02 366.77 L 449.34 368.41 L 450.73 370.04 L 452.20 371.66 L 453.73 373.26 L 455.33 374.84 L 457.00 376.40 L 458.74 377.93 L 460.55 379.45 L 462.43 380.94 L 464.37 382.41 L 466.37 383.85 L 468.44 385.26 L 470.56 386.64 L 472.75 387.99 L 475.00 389.30 L 477.30 390.59 L 479.65 391.83 L 482.06 393.05 L 484.51 394.22 L 487.02 395.36 L 489.57 396.46 L 492.16 397.52 L 494.79 398.54 L 497.46 399.52 L 500.17 400.45 L 502.91 401.34 L 505.68 402.19 L 508.48 402.99 L 511.30 403.75 L 514.15 404.46 L 517.01 405.13 L 519.90 405.74 L 522.79 406.32 L 525.70 406.84 L 528.61 407.32 L 531.54 407.75 L 534.46 408.13 L 537.39 408.47 L 540.31 408.76 L 543.22 409.00 L 546.13 409.19 L 549.03 409.34 L 551.92 409.44 L 554.79 409.49 L 557.64 409.50 L 560.47 409.46 L 563.28 409.37 L 566.06 409.24 L 568.82 409.07 L 571.55 408.85 L 574.24 408.59 L 576.90 408.29 L 579.53 407.95 L 582.12 407.56 L 584.67 407.14 L 587.18 406.67 L 589.65 406.17 L 592.08 405.63 L 594.46 405.06 L 596.80 404.45 L 599.09 403.80 L 601.33 403.12 L 603.52 402.41 L 605.66 401.67 L 607.75 400.90 L 609.79 400.10 L 611.78 399.27 L 613.72 398.41 L 615.60 397.53 L 617.43 396.63 L 619.21 395.70 L 620.94 394.74 L 622.61 393.77 L 624.23 392.78 L 625.79 391.77 L 627.31 390.74 L 628.77 389.69 L 630.18 388.63 L 631.54 387.55 L 632.85 386.46 L 634.10 385.36 L 635.31 384.25 L 636.47 383.12 L 637.58 381.99 L 638.64 380.85 L 639.66 379.71 L 640.63 378.55 L 641.55 377.40 L 642.44 376.24 L 643.28 375.07 L 644.07 373.90 L 644.83 372.74 L 645.55 371.57 L 646.23 370.40 L 646.87 369.23 L 647.48 368.07 L 648.05 366.90 L 648.59 365.75 L 649.09 364.59 L 649.57 363.44 L 650.02 362.30 L 650.43 361.16 L 650.82 360.03 L 651.18 358.90 L 651.52 357.79 L 651.84 356.68 L 652.13 355.58 L 652.40 354.49 L 652.65 353.41 L 652.88 352.34 L 653.09 351.28 L 653.29 350.24 L 653.47 349.20 L 653.63 348.18 L 653.79 347.16 L 653.93 346.16 L 654.05 345.18 L 654.05 432.00 L 367.49 432.00 Z" fill="#1d2b28" fill-rule="nonzero" stroke="#4a8f85" stroke-width="2" stroke-linejoin="round"/>
<text class="curl-foam-dim-text curl-caption" x="326.0" y="458.0">Points slide toward the crest.</text>
<text class="curl-foam-dim-text curl-caption" x="326.0" y="479.0">dz/dz&#8320; = 1 &#8722; S&#183;cos(kz&#8320;), so at</text>
<text class="curl-foam-dim-text curl-caption" x="326.0" y="500.0">S = 1 the tangent goes vertical.</text>
<text class="curl-foam-dim-text curl-caption" x="326.0" y="521.0">This is the cusp, exactly.</text>
<text class="curl-foam-text curl-panel-name" x="612.0" y="182.0">3. CHOPPY, S = 1.8</text>
<text class="curl-fg-text curl-eq curl-mono" x="612.0" y="204.0">S &gt; 1 &#8594; the mesh folds</text>
<rect x="612.0" y="232.0" width="262.0" height="200.0" fill="none" stroke="#6b7f8c" stroke-width="1"/>
<line x1="612.0" y1="347.0" x2="874.0" y2="347.0" stroke="#6b7f8c" stroke-width="1" stroke-dasharray="4 4"/>
<path d="M 689.96 345.18 L 689.60 344.20 L 689.22 343.24 L 688.83 342.29 L 688.42 341.35 L 688.00 340.43 L 687.57 339.52 L 687.13 338.63 L 686.68 337.75 L 686.23 336.88 L 685.77 336.03 L 685.31 335.19 L 684.85 334.37 L 684.39 333.56 L 683.92 332.76 L 683.46 331.98 L 683.00 331.21 L 682.54 330.46 L 682.09 329.72 L 681.64 328.99 L 681.20 328.28 L 680.76 327.58 L 680.34 326.90 L 679.92 326.23 L 679.51 325.57 L 679.11 324.92 L 678.72 324.29 L 678.34 323.68 L 677.98 323.07 L 677.62 322.48 L 677.28 321.90 L 676.95 321.33 L 676.64 320.78 L 676.33 320.24 L 676.05 319.71 L 675.77 319.19 L 675.52 318.69 L 675.27 318.19 L 675.05 317.71 L 674.83 317.24 L 674.64 316.78 L 674.45 316.33 L 674.29 315.89 L 674.14 315.46 L 674.01 315.04 L 673.89 314.63 L 673.79 314.23 L 673.71 313.84 L 673.64 313.46 L 673.59 313.09 L 673.55 312.73 L 673.53 312.38 L 673.53 312.04 L 673.54 311.70 L 673.57 311.38 L 673.62 311.06 L 673.68 310.75 L 673.76 310.44 L 673.86 310.15 L 673.97 309.86 L 674.09 309.58 L 674.24 309.31 L 674.39 309.04 L 674.57 308.78 L 674.76 308.52 L 674.96 308.28 L 675.18 308.03 L 675.42 307.80 L 675.67 307.57 L 675.93 307.34 L 676.21 307.12 L 676.51 306.91 L 676.82 306.70 L 677.14 306.49 L 677.48 306.29 L 677.84 306.10 L 678.20 305.91 L 678.59 305.72 L 678.98 305.53 L 679.39 305.35 L 679.81 305.18 L 680.25 305.01 L 680.70 304.84 L 681.16 304.67 L 681.64 304.51 L 682.13 304.35 L 682.64 304.19 L 683.15 304.03 L 683.68 303.88 L 684.22 303.73 L 684.78 303.58 L 685.34 303.43 L 685.92 303.29 L 686.52 303.14 L 687.12 303.00 L 687.74 302.86 L 688.36 302.72 L 689.00 302.58 L 689.65 302.44 L 690.32 302.30 L 690.99 302.17 L 691.67 302.03 L 692.37 301.89 L 693.08 301.76 L 693.80 301.62 L 694.52 301.48 L 695.26 301.35 L 696.01 301.21 L 696.77 301.07 L 697.54 300.94 L 698.32 300.80 L 699.10 300.66 L 699.90 300.52 L 700.71 300.38 L 701.52 300.24 L 702.35 300.09 L 703.18 299.95 L 704.02 299.80 L 704.86 299.65 L 705.72 299.50 L 706.58 299.35 L 707.45 299.20 L 708.33 299.05 L 709.21 298.89 L 710.10 298.73 L 711.00 298.57 L 711.90 298.41 L 712.80 298.24 L 713.71 298.07 L 714.63 297.90 L 715.55 297.73 L 716.47 297.56 L 717.39 297.38 L 718.32 297.20 L 719.25 297.02 L 720.19 296.83 L 721.12 296.64 L 722.05 296.45 L 722.99 296.26 L 723.92 296.07 L 724.86 295.87 L 725.79 295.67 L 726.72 295.47 L 727.65 295.26 L 728.58 295.05 L 729.50 294.84 L 730.42 294.63 L 731.33 294.41 L 732.24 294.19 L 733.14 293.97 L 734.03 293.75 L 734.92 293.53 L 735.80 293.30 L 736.67 293.07 L 737.53 292.84 L 738.38 292.61 L 739.22 292.38 L 740.04 292.14 L 740.85 291.91 L 741.65 291.67 L 742.44 291.43 L 743.21 291.20 L 743.96 290.96 L 744.69 290.72 L 745.41 290.48 L 746.11 290.24 L 746.78 290.00 L 747.44 289.76 L 748.07 289.52 L 748.69 289.29 L 749.27 289.05 L 749.84 288.82 L 750.37 288.59 L 750.89 288.36 L 751.37 288.13 L 751.82 287.91 L 752.25 287.69 L 752.64 287.47 L 753.00 287.26 L 753.33 287.05 L 753.63 286.85 L 753.89 286.65 L 754.12 286.46 L 754.31 286.27 L 754.46 286.09 L 754.57 285.92 L 754.65 285.75 L 754.69 285.60 L 754.68 285.45 L 754.63 285.31 L 754.54 285.18 L 754.41 285.06 L 754.24 284.94 L 754.02 284.85 L 753.75 284.76 L 753.44 284.68 L 753.08 284.62 L 752.67 284.57 L 752.22 284.53 L 751.72 284.51 L 751.17 284.50 L 750.57 284.51 L 749.93 284.53 L 749.23 284.57 L 748.49 284.63 L 747.69 284.70 L 746.85 284.80 L 745.96 284.91 L 745.02 285.04 L 744.03 285.20 L 742.99 285.37 L 741.90 285.56 L 740.77 285.78 L 739.59 286.02 L 738.36 286.28 L 737.09 286.56 L 735.77 286.87 L 734.41 287.21 L 733.00 287.57 L 731.56 287.95 L 730.07 288.36 L 728.55 288.80 L 726.99 289.26 L 725.39 289.75 L 723.76 290.27 L 722.10 290.82 L 720.41 291.40 L 718.69 292.00 L 716.94 292.64 L 715.17 293.30 L 713.38 293.99 L 711.57 294.72 L 709.74 295.47 L 707.90 296.26 L 706.04 297.07 L 704.18 297.92 L 702.32 298.80 L 700.45 299.71 L 698.59 300.65 L 696.72 301.62 L 694.87 302.62 L 693.03 303.65 L 691.20 304.71 L 689.39 305.80 L 687.60 306.93 L 685.83 308.08 L 684.10 309.26 L 682.39 310.47 L 680.73 311.71 L 679.10 312.98 L 677.52 314.27 L 675.98 315.60 L 674.50 316.95 L 673.07 318.32 L 671.71 319.72 L 670.40 321.15 L 669.16 322.60 L 668.00 324.07 L 666.90 325.57 L 665.89 327.08 L 664.96 328.62 L 664.11 330.17 L 663.35 331.75 L 662.68 333.34 L 662.11 334.94 L 661.64 336.56 L 661.26 338.20 L 661.00 339.85 L 660.84 341.50 L 660.79 343.17 L 660.85 344.85 L 661.02 346.53 L 661.32 348.22 L 661.73 349.92 L 662.26 351.61 L 662.92 353.31 L 663.70 355.01 L 664.61 356.71 L 665.64 358.40 L 666.80 360.09 L 668.08 361.77 L 669.50 363.45 L 671.05 365.12 L 672.72 366.77 L 674.52 368.41 L 676.45 370.04 L 678.51 371.66 L 680.70 373.26 L 683.01 374.84 L 685.45 376.40 L 688.01 377.93 L 690.69 379.45 L 693.49 380.94 L 696.41 382.41 L 699.44 383.85 L 702.59 385.26 L 705.84 386.64 L 709.21 387.99 L 712.68 389.30 L 716.24 390.59 L 719.91 391.83 L 723.67 393.05 L 727.51 394.22 L 731.45 395.36 L 735.46 396.46 L 739.56 397.52 L 743.72 398.54 L 747.96 399.52 L 752.26 400.45 L 756.62 401.34 L 761.03 402.19 L 765.49 402.99 L 770.00 403.75 L 774.55 404.46 L 779.14 405.13 L 783.75 405.74 L 788.39 406.32 L 793.05 406.84 L 797.73 407.32 L 802.41 407.75 L 807.10 408.13 L 811.80 408.47 L 816.48 408.76 L 821.16 409.00 L 825.82 409.19 L 830.47 409.34 L 835.09 409.44 L 839.68 409.49 L 844.24 409.50 L 848.76 409.46 L 853.25 409.37 L 857.68 409.24 L 862.07 409.07 L 866.41 408.85 L 870.69 408.59 L 874.91 408.29 L 879.06 407.95 L 883.15 407.56 L 887.17 407.14 L 891.12 406.67 L 894.99 406.17 L 898.78 405.63 L 902.50 405.06 L 906.13 404.45 L 909.67 403.80 L 913.13 403.12 L 916.51 402.41 L 919.79 401.67 L 922.98 400.90 L 926.08 400.10 L 929.09 399.27 L 932.00 398.41 L 934.82 397.53 L 937.54 396.63 L 940.17 395.70 L 942.70 394.74 L 945.14 393.77 L 947.48 392.78 L 949.73 391.77 L 951.88 390.74 L 953.94 389.69 L 955.90 388.63 L 957.77 387.55 L 959.55 386.46 L 961.24 385.36 L 962.84 384.25 L 964.35 383.12 L 965.78 381.99 L 967.12 380.85 L 968.38 379.71 L 969.55 378.55 L 970.64 377.40 L 971.66 376.24 L 972.60 375.07 L 973.46 373.90 L 974.25 372.74 L 974.97 371.57 L 975.62 370.40 L 976.20 369.23 L 976.72 368.07 L 977.18 366.90 L 977.57 365.75 L 977.91 364.59 L 978.19 363.44 L 978.42 362.30 L 978.60 361.16 L 978.73 360.03 L 978.81 358.90 L 978.84 357.79 L 978.83 356.68 L 978.78 355.58 L 978.70 354.49 L 978.57 353.41 L 978.42 352.34 L 978.23 351.28 L 978.01 350.24 L 977.76 349.20 L 977.48 348.18 L 977.19 347.16 L 976.86 346.16 L 976.52 345.18 L 976.52 432.00 L 689.96 432.00 Z" fill="#1d2b28" fill-rule="nonzero" stroke="#4a8f85" stroke-width="2" stroke-linejoin="round"/>
<text class="curl-foam-dim-text curl-caption" x="612.0" y="458.0">Past the cusp the surface really</text>
<text class="curl-foam-dim-text curl-caption" x="612.0" y="479.0">is multivalued. But it folds</text>
<text class="curl-foam-dim-text curl-caption" x="612.0" y="500.0">SYMMETRICALLY about the crest.</text>
<text class="curl-foam-dim-text curl-caption" x="612.0" y="521.0">That is a fold, not a lip.</text>
<text class="curl-foam-text curl-panel-name" x="898.0" y="182.0">4. LEGACY THROW + DROP</text>
<text class="curl-fg-text curl-eq curl-mono" x="898.0" y="204.0">off_z += 0.30&#183;(S/k)</text>
<text class="curl-fg-text curl-eq curl-mono" x="898.0" y="224.0">&#215; pocket &#215; plunge</text>
<rect x="898.0" y="232.0" width="262.0" height="200.0" fill="none" stroke="#6b7f8c" stroke-width="1"/>
<line x1="898.0" y1="347.0" x2="1160.0" y2="347.0" stroke="#6b7f8c" stroke-width="1" stroke-dasharray="4 4"/>
<path d="M 975.97 345.18 L 975.61 344.20 L 975.23 343.24 L 974.84 342.29 L 974.44 341.35 L 974.02 340.43 L 973.59 339.52 L 973.15 338.63 L 972.71 337.75 L 972.26 336.88 L 971.80 336.03 L 971.34 335.19 L 970.88 334.37 L 970.42 333.56 L 969.96 332.76 L 969.50 331.98 L 969.04 331.21 L 968.58 330.46 L 968.13 329.72 L 967.69 328.99 L 967.25 328.28 L 966.82 327.58 L 966.40 326.90 L 965.98 326.23 L 965.58 325.57 L 965.18 324.92 L 964.80 324.29 L 964.43 323.68 L 964.07 323.07 L 963.72 322.48 L 963.38 321.90 L 963.06 321.33 L 962.75 320.78 L 962.46 320.24 L 962.18 319.71 L 961.92 319.19 L 961.67 318.69 L 961.44 318.19 L 961.22 317.71 L 961.02 317.24 L 960.83 316.78 L 960.66 316.33 L 960.51 315.89 L 960.37 315.46 L 960.25 315.04 L 960.15 314.63 L 960.07 314.23 L 960.00 313.84 L 959.95 313.46 L 959.92 313.09 L 959.90 312.73 L 959.90 312.38 L 959.92 312.04 L 959.96 311.70 L 960.01 311.38 L 960.08 311.06 L 960.17 310.75 L 960.28 310.44 L 960.40 310.15 L 960.54 309.86 L 960.70 309.58 L 960.87 309.31 L 961.07 309.04 L 961.28 308.78 L 961.50 308.52 L 961.75 308.28 L 962.01 308.03 L 962.29 307.80 L 962.58 307.57 L 962.89 307.34 L 963.22 307.12 L 963.57 306.91 L 963.93 306.70 L 964.31 306.49 L 964.71 306.29 L 965.12 306.10 L 965.55 305.91 L 966.00 305.72 L 966.46 305.53 L 966.94 305.35 L 967.43 305.18 L 967.94 305.01 L 968.47 304.84 L 969.02 304.67 L 969.58 304.51 L 970.15 304.35 L 970.75 304.19 L 971.36 304.03 L 971.98 303.88 L 972.62 303.73 L 973.28 303.58 L 973.95 303.43 L 974.64 303.29 L 975.34 303.14 L 976.06 303.00 L 976.80 302.86 L 977.55 302.72 L 978.32 302.58 L 979.10 302.44 L 979.90 302.30 L 980.71 302.17 L 981.54 302.03 L 982.38 301.89 L 983.24 301.76 L 984.11 301.62 L 984.99 301.48 L 985.90 301.35 L 986.81 301.21 L 987.74 301.07 L 988.68 300.94 L 989.64 300.80 L 990.61 300.66 L 991.60 300.52 L 992.60 300.38 L 993.61 300.24 L 994.63 300.09 L 995.67 299.95 L 996.71 299.80 L 997.77 299.65 L 998.85 299.50 L 999.93 299.35 L 1001.02 299.20 L 1002.13 299.05 L 1003.24 298.89 L 1004.37 298.73 L 1005.50 298.57 L 1006.64 298.41 L 1007.80 298.24 L 1008.96 298.07 L 1010.12 297.90 L 1011.30 297.73 L 1012.48 297.56 L 1013.67 297.38 L 1014.86 297.20 L 1016.06 297.02 L 1017.27 296.83 L 1018.47 296.64 L 1019.68 296.45 L 1020.90 296.26 L 1022.11 296.07 L 1023.33 295.87 L 1024.54 295.67 L 1025.76 295.47 L 1026.98 295.26 L 1028.19 295.05 L 1029.40 294.84 L 1030.61 294.63 L 1031.81 294.41 L 1033.01 294.19 L 1034.20 293.97 L 1035.39 293.75 L 1036.56 293.53 L 1037.73 293.30 L 1038.89 293.07 L 1040.04 292.84 L 1041.17 292.61 L 1042.30 292.38 L 1043.40 292.14 L 1044.50 291.91 L 1045.58 291.67 L 1046.64 291.43 L 1047.68 291.20 L 1048.70 290.96 L 1049.70 290.72 L 1050.69 290.48 L 1051.64 290.24 L 1052.58 290.00 L 1053.49 289.76 L 1054.37 289.52 L 1055.22 289.29 L 1056.05 289.05 L 1056.85 288.82 L 1057.61 288.59 L 1058.34 288.36 L 1059.04 288.13 L 1059.71 287.91 L 1060.33 287.69 L 1060.93 287.47 L 1061.48 287.26 L 1061.99 287.05 L 1062.46 286.85 L 1062.89 286.65 L 1063.28 286.46 L 1063.63 286.27 L 1063.93 286.09 L 1064.18 285.92 L 1064.38 285.75 L 1064.54 285.60 L 1064.65 285.45 L 1064.71 285.31 L 1064.71 285.18 L 1064.67 285.06 L 1064.57 284.94 L 1064.42 284.85 L 1064.21 284.76 L 1063.95 284.68 L 1063.63 284.62 L 1063.26 284.57 L 1062.83 284.53 L 1062.34 284.51 L 1061.80 284.50 L 1061.20 284.51 L 1060.54 284.55 L 1059.82 284.69 L 1059.04 284.93 L 1058.21 285.25 L 1057.31 285.65 L 1056.36 286.14 L 1055.35 286.70 L 1054.28 287.33 L 1053.15 288.03 L 1051.97 288.78 L 1050.73 289.58 L 1049.44 290.43 L 1048.09 291.32 L 1046.69 292.25 L 1045.23 293.20 L 1043.73 294.18 L 1042.17 295.18 L 1040.56 296.18 L 1038.91 297.19 L 1037.21 298.20 L 1035.47 299.21 L 1033.68 300.22 L 1031.85 301.21 L 1029.98 302.18 L 1028.08 303.14 L 1026.14 304.07 L 1024.18 304.98 L 1022.18 305.86 L 1020.15 306.72 L 1018.10 307.55 L 1016.03 308.35 L 1013.94 309.12 L 1011.84 309.87 L 1009.72 310.58 L 1007.60 311.27 L 1005.46 311.94 L 1003.33 312.58 L 1001.20 313.20 L 999.07 313.80 L 996.95 314.38 L 994.84 314.94 L 992.75 315.50 L 990.68 316.04 L 988.63 316.58 L 986.61 317.13 L 984.61 317.68 L 982.66 318.24 L 980.74 318.81 L 978.87 319.41 L 977.05 320.03 L 975.27 320.68 L 973.56 321.36 L 971.90 322.08 L 970.30 322.84 L 968.78 323.64 L 967.32 324.49 L 965.94 325.57 L 964.64 327.08 L 963.43 328.62 L 962.30 330.17 L 961.26 331.75 L 960.31 333.34 L 959.46 334.94 L 958.72 336.56 L 958.07 338.20 L 957.54 339.85 L 957.11 341.50 L 956.80 343.17 L 956.60 344.85 L 956.52 346.53 L 956.56 348.22 L 956.72 349.92 L 957.01 351.61 L 957.42 353.31 L 957.96 355.01 L 958.63 356.71 L 959.43 358.40 L 960.37 360.09 L 961.43 361.77 L 962.63 363.45 L 963.95 365.12 L 965.42 366.77 L 967.01 368.41 L 968.74 370.04 L 970.60 371.66 L 972.59 373.26 L 974.71 374.84 L 976.96 376.40 L 979.33 377.93 L 981.84 379.45 L 984.46 380.94 L 987.21 382.41 L 990.08 383.85 L 993.06 385.26 L 996.16 386.64 L 999.37 387.99 L 1002.68 389.30 L 1006.10 390.59 L 1009.63 391.83 L 1013.25 393.05 L 1016.96 394.22 L 1020.76 395.36 L 1024.65 396.46 L 1028.62 397.52 L 1032.67 398.54 L 1036.79 399.52 L 1040.97 400.45 L 1045.22 401.34 L 1049.53 402.19 L 1053.89 402.99 L 1058.30 403.75 L 1062.76 404.46 L 1067.25 405.13 L 1071.77 405.74 L 1076.33 406.32 L 1080.90 406.84 L 1085.50 407.32 L 1090.11 407.75 L 1094.72 408.13 L 1099.34 408.47 L 1103.96 408.76 L 1108.57 409.00 L 1113.17 409.19 L 1117.75 409.34 L 1122.31 409.44 L 1126.85 409.49 L 1131.35 409.50 L 1135.82 409.46 L 1140.26 409.37 L 1144.64 409.24 L 1148.99 409.07 L 1153.28 408.85 L 1157.51 408.59 L 1161.69 408.29 L 1165.81 407.95 L 1169.86 407.56 L 1173.84 407.14 L 1177.76 406.67 L 1181.59 406.17 L 1185.36 405.63 L 1189.04 405.06 L 1192.64 404.45 L 1196.16 403.80 L 1199.60 403.12 L 1202.94 402.41 L 1206.20 401.67 L 1209.37 400.90 L 1212.45 400.10 L 1215.44 399.27 L 1218.33 398.41 L 1221.13 397.53 L 1223.84 396.63 L 1226.45 395.70 L 1228.96 394.74 L 1231.39 393.77 L 1233.71 392.78 L 1235.95 391.77 L 1238.09 390.74 L 1240.13 389.69 L 1242.08 388.63 L 1243.95 387.55 L 1245.72 386.46 L 1247.40 385.36 L 1248.99 384.25 L 1250.49 383.12 L 1251.91 381.99 L 1253.24 380.85 L 1254.49 379.71 L 1255.65 378.55 L 1256.74 377.40 L 1257.75 376.24 L 1258.68 375.07 L 1259.54 373.90 L 1260.32 372.74 L 1261.04 371.57 L 1261.68 370.40 L 1262.26 369.23 L 1262.78 368.07 L 1263.23 366.90 L 1263.62 365.75 L 1263.96 364.59 L 1264.24 363.44 L 1264.46 362.30 L 1264.64 361.16 L 1264.76 360.03 L 1264.84 358.90 L 1264.87 357.79 L 1264.86 356.68 L 1264.81 355.58 L 1264.72 354.49 L 1264.60 353.41 L 1264.44 352.34 L 1264.25 351.28 L 1264.03 350.24 L 1263.78 349.20 L 1263.50 348.18 L 1263.20 347.16 L 1262.88 346.16 L 1262.53 345.18 L 1262.53 432.00 L 975.97 432.00 Z" fill="#1d2b28" fill-rule="nonzero" stroke="#4a8f85" stroke-width="2" stroke-linejoin="round"/>
<text class="curl-sand-text curl-caption" x="898.0" y="458.0">The reversible old path. The band</text>
<text class="curl-sand-text curl-caption" x="898.0" y="479.0">is translated shoreward and the</text>
<text class="curl-sand-text curl-caption" x="898.0" y="500.0">front face pulled down. A trans-</text>
<text class="curl-sand-text curl-caption" x="898.0" y="521.0">lation cannot preserve thickness.</text>
<text class="curl-fg-text curl-strip-label" x="40" y="578">THE DEFAULT BEND &#8212; the lip and the curtain it is joined to</text>
<line x1="40" y1="590" x2="1160" y2="590" stroke="#6b7f8c" stroke-width="1"/>
<rect x="40.0" y="612.0" width="660.0" height="478.0" fill="none" stroke="#6b7f8c" stroke-width="1"/>
<line x1="40.0" y1="913.9" x2="700.0" y2="913.9" stroke="#6b7f8c" stroke-width="1" stroke-dasharray="4 4"/>
<path d="M 254.60 909.30 L 254.90 906.85 L 255.16 904.43 L 255.41 902.04 L 255.64 899.69 L 255.85 897.37 L 256.05 895.09 L 256.24 892.84 L 256.41 890.62 L 256.58 888.44 L 256.74 886.30 L 256.89 884.19 L 257.04 882.11 L 257.19 880.07 L 257.34 878.07 L 257.49 876.10 L 257.65 874.17 L 257.81 872.28 L 257.97 870.41 L 258.15 868.59 L 258.33 866.80 L 258.52 865.04 L 258.72 863.32 L 258.93 861.63 L 259.16 859.98 L 259.40 858.36 L 259.65 856.77 L 259.92 855.22 L 260.21 853.70 L 260.51 852.21 L 260.83 850.75 L 261.16 849.33 L 261.52 847.93 L 261.89 846.57 L 262.29 845.24 L 262.70 843.94 L 263.13 842.66 L 263.59 841.42 L 264.06 840.20 L 264.56 839.02 L 265.08 837.86 L 265.62 836.73 L 266.18 835.62 L 266.77 834.54 L 267.37 833.49 L 268.00 832.46 L 268.65 831.46 L 269.32 830.48 L 270.02 829.53 L 270.74 828.60 L 271.48 827.69 L 272.24 826.80 L 273.03 825.94 L 273.84 825.09 L 274.67 824.27 L 275.52 823.47 L 276.40 822.69 L 277.30 821.93 L 278.22 821.18 L 279.16 820.46 L 280.13 819.75 L 281.11 819.06 L 282.12 818.39 L 283.15 817.74 L 284.20 817.10 L 285.27 816.47 L 286.36 815.86 L 287.48 815.27 L 288.61 814.69 L 289.77 814.12 L 290.95 813.57 L 292.14 813.03 L 293.36 812.50 L 294.60 811.99 L 295.85 811.48 L 297.13 810.99 L 298.43 810.51 L 299.74 810.04 L 301.08 809.58 L 302.43 809.12 L 303.80 808.68 L 305.20 808.25 L 306.61 807.82 L 308.03 807.40 L 309.48 806.99 L 310.95 806.59 L 312.43 806.19 L 313.93 805.80 L 315.45 805.41 L 316.99 805.03 L 318.54 804.65 L 320.11 804.28 L 321.70 803.92 L 323.31 803.56 L 324.93 803.20 L 326.57 802.84 L 328.22 802.49 L 329.89 802.14 L 331.58 801.79 L 333.28 801.44 L 335.00 801.10 L 336.73 800.76 L 338.48 800.41 L 340.24 800.07 L 342.02 799.73 L 343.82 799.39 L 345.62 799.04 L 347.44 798.70 L 349.28 798.35 L 351.13 798.01 L 352.99 797.66 L 354.87 797.31 L 356.75 796.96 L 358.65 796.60 L 360.57 796.24 L 362.49 795.88 L 364.43 795.52 L 366.38 795.15 L 368.33 794.78 L 370.30 794.40 L 372.28 794.02 L 374.27 793.64 L 376.27 793.25 L 378.27 792.86 L 380.29 792.46 L 382.31 792.05 L 384.34 791.64 L 386.38 791.23 L 388.42 790.81 L 390.47 790.38 L 392.53 789.94 L 394.59 789.50 L 396.66 789.06 L 398.72 788.61 L 400.80 788.15 L 402.87 787.68 L 404.95 787.21 L 407.02 786.73 L 409.10 786.25 L 411.18 785.76 L 413.26 785.26 L 415.33 784.76 L 417.41 784.24 L 419.48 783.73 L 421.54 783.20 L 423.60 782.67 L 425.66 782.14 L 427.71 781.60 L 429.75 781.05 L 431.78 780.49 L 433.81 779.94 L 435.83 779.37 L 437.83 778.80 L 439.82 778.23 L 441.81 777.65 L 443.78 777.07 L 445.73 776.48 L 447.67 775.89 L 449.60 775.30 L 451.52 774.71 L 453.42 774.11 L 455.30 773.51 L 457.17 772.92 L 459.02 772.32 L 460.86 771.73 L 462.69 771.14 L 464.50 770.57 L 466.29 770.00 L 468.08 769.44 L 469.85 768.91 L 471.61 768.41 L 473.37 767.93 L 475.11 767.51 L 476.84 767.13 L 478.57 766.83 L 480.29 766.61 L 481.99 766.49 L 483.69 766.49 L 485.37 766.63 L 487.04 766.94 L 488.69 767.42 L 490.32 768.10 L 491.91 769.00 L 493.47 770.11 L 494.98 771.46 L 496.44 773.03 L 497.84 774.82 L 499.18 776.79 L 500.43 778.93 L 501.60 781.18 L 502.68 783.51 L 503.66 785.86 L 504.53 788.16 L 505.31 790.37 L 505.98 792.42 L 506.55 794.26 L 507.01 795.84 L 507.37 797.12 L 507.62 798.05 L 507.77 798.62 L 507.82 798.82 L 507.77 798.62 L 507.62 798.05 L 507.36 797.11 L 506.99 795.84 L 506.52 794.26 L 505.94 792.43 L 505.24 790.39 L 504.43 788.20 L 503.50 785.94 L 502.47 783.65 L 501.33 781.42 L 500.09 779.29 L 498.75 777.32 L 497.33 775.56 L 495.83 774.05 L 494.27 772.81 L 492.64 771.84 L 490.97 771.17 L 489.25 770.79 L 487.51 770.67 L 485.73 770.82 L 483.94 771.22 L 482.13 771.83 L 480.31 772.64 L 478.48 773.64 L 476.65 774.79 L 474.81 776.09 L 472.97 777.52 L 471.12 779.07 L 469.27 780.73 L 467.43 782.49 L 465.58 784.35 L 463.73 786.30 L 461.88 788.33 L 460.04 790.44 L 458.21 792.64 L 456.38 794.92 L 454.56 797.28 L 452.76 799.72 L 450.97 802.24 L 449.20 804.83 L 447.46 807.50 L 445.75 810.25 L 444.06 813.08 L 442.42 815.97 L 440.81 818.95 L 439.25 821.99 L 437.74 825.11 L 436.29 828.30 L 434.90 831.56 L 433.57 834.89 L 432.32 838.29 L 431.14 841.75 L 430.05 845.27 L 429.04 848.86 L 428.12 852.51 L 427.30 856.21 L 426.59 859.97 L 425.98 863.78 L 425.48 867.65 L 425.11 871.56 L 424.85 875.52 L 424.72 879.52 L 424.72 883.56 L 424.86 887.64 L 425.13 891.75 L 425.56 895.89 L 426.12 900.07 L 426.84 904.26 L 427.72 908.48 L 428.75 912.72 L 429.95 916.97 L 431.31 921.23 L 432.83 925.50 L 434.52 929.77 L 436.39 934.05 L 438.43 938.31 L 440.64 942.58 L 443.03 946.83 L 445.59 951.06 L 448.33 955.28 L 451.25 959.47 L 454.35 963.63 L 457.62 967.77 L 461.07 971.87 L 464.70 975.93 L 468.50 979.95 L 472.48 983.92 L 476.62 987.85 L 480.94 991.72 L 485.43 995.53 L 490.07 999.28 L 494.89 1002.97 L 499.86 1006.59 L 504.98 1010.14 L 510.26 1013.61 L 515.68 1017.00 L 521.25 1020.32 L 526.96 1023.55 L 532.80 1026.69 L 538.76 1029.74 L 544.86 1032.70 L 551.07 1035.56 L 557.39 1038.33 L 563.82 1040.99 L 570.35 1043.56 L 576.98 1046.01 L 583.69 1048.36 L 590.49 1050.60 L 597.36 1052.74 L 604.30 1054.75 L 611.30 1056.66 L 618.36 1058.45 L 625.47 1060.13 L 632.62 1061.68 L 639.80 1063.12 L 647.01 1064.45 L 654.24 1065.65 L 661.49 1066.73 L 668.74 1067.70 L 676.00 1068.54 L 683.24 1069.27 L 690.48 1069.87 L 697.70 1070.36 L 704.88 1070.72 L 712.04 1070.97 L 719.16 1071.11 L 726.23 1071.12 L 733.26 1071.03 L 740.22 1070.81 L 747.13 1070.49 L 753.96 1070.05 L 760.73 1069.51 L 767.42 1068.85 L 774.02 1068.09 L 780.53 1067.23 L 786.96 1066.26 L 793.29 1065.19 L 799.52 1064.02 L 805.64 1062.76 L 811.66 1061.41 L 817.56 1059.96 L 823.36 1058.42 L 829.03 1056.80 L 834.59 1055.09 L 840.03 1053.30 L 845.34 1051.44 L 850.53 1049.49 L 855.59 1047.48 L 860.52 1045.39 L 865.33 1043.24 L 870.00 1041.02 L 874.54 1038.74 L 878.95 1036.40 L 883.23 1034.01 L 887.38 1031.56 L 891.40 1029.06 L 895.28 1026.51 L 899.04 1023.92 L 902.66 1021.29 L 906.16 1018.62 L 909.53 1015.91 L 912.77 1013.17 L 915.89 1010.40 L 918.88 1007.60 L 921.76 1004.78 L 924.51 1001.93 L 927.15 999.06 L 929.67 996.18 L 932.07 993.28 L 934.37 990.37 L 936.56 987.44 L 938.64 984.51 L 940.62 981.58 L 942.50 978.64 L 944.28 975.70 L 945.97 972.76 L 947.56 969.82 L 949.06 966.89 L 950.48 963.97 L 951.82 961.05 L 953.07 958.15 L 954.25 955.26 L 955.36 952.38 L 956.39 949.51 L 957.35 946.67 L 958.25 943.84 L 959.09 941.03 L 959.87 938.25 L 960.59 935.48 L 961.26 932.74 L 961.88 930.03 L 962.46 927.34 L 962.98 924.67 L 963.47 922.04 L 963.92 919.43 L 964.33 916.85 L 964.71 914.30 L 965.05 911.79 L 965.37 909.30 L 965.37 1090.00 L 254.60 1090.00 Z" fill="#1d2b28" fill-rule="nonzero" stroke="#4a8f85" stroke-width="2.5" stroke-linejoin="round"/>
<polyline points="447.61,775.89 449.51,775.30 451.40,774.70 453.28,774.10 455.12,773.50 456.95,772.90 458.75,772.30 460.53,771.70 462.28,771.10 464.00,770.49 465.70,769.90 467.36,769.30 468.99,768.70 470.59,768.11 472.16,767.52 473.69,766.94 475.18,766.37 476.64,765.80 478.05,765.23 479.43,764.68 480.76,764.14 482.05,763.60 483.29,763.08 484.49,762.57 485.64,762.07 486.75,761.58 487.80,761.12 488.80,760.66 489.74,760.23 490.64,759.81 491.48,759.42 492.26,759.04 492.98,758.69 493.65,758.36 494.26,758.05 494.81,757.78 495.29,757.53 495.71,757.30 496.07,757.11 496.37,756.95 496.60,756.83 496.77,756.73 496.87,756.68 496.90,756.66 496.87,756.68 496.77,756.74 496.60,756.84 496.36,756.98 496.06,757.17 495.68,757.41 495.24,757.69 494.74,758.03 494.16,758.41 493.52,758.84 492.81,759.33 492.04,759.88 491.20,760.48 490.30,761.13 489.34,761.85 488.31,762.63 487.23,763.47 486.08,764.37 484.88,765.34 483.63,766.37 482.32,767.47 480.95,768.64 479.54,769.87 478.09,771.18 476.59,772.56 475.04,774.01 473.46,775.53 471.84,777.13 470.19,778.80 468.51,780.54 466.81,782.37 465.08,784.26 463.33,786.24 461.57,788.29 459.80,790.42 458.02,792.63 456.23,794.91 454.45,797.28 452.67,799.72 450.91,802.24 449.16,804.83" fill="none" stroke="#d8dcdd" stroke-width="2" stroke-dasharray="6 5"/>
<line x1="40.0" y1="858.9" x2="700.0" y2="858.9" stroke="#c9a86a" stroke-width="1.5" stroke-dasharray="7 4"/>
<text class="curl-sand-text curl-annot" x="48.0" y="849.9">y_bend = 0.35&#183;h_crest &#8212; the face below is untouched, and keeps standing</text>
<path d="M 507.8 798.8 C 523.8 832.8 547.0 989.5 527.0 1023.5" fill="none" stroke="#c9a86a" stroke-width="3" stroke-dasharray="9 6" stroke-linecap="round"/>
<circle cx="507.8" cy="798.8" r="4.5" fill="#c9a86a"/>
<circle cx="527.0" cy="1023.5" r="4.5" fill="none" stroke="#c9a86a" stroke-width="2"/>
<text class="curl-foam-text curl-annot-b" x="357.8" y="790.8">&#952; = 97&#176; at the lip</text>
<text class="curl-foam-dim-text curl-annot" x="357.8" y="810.8">(132&#176; is the mesh backstop)</text>
<text class="curl-sand-text curl-annot" x="541.8" y="901.2">CURTAIN: CONNECTED</text>
<text class="curl-sand-text curl-annot" x="541.8" y="922.2">a second surface</text>
<text class="curl-sand-text curl-annot" x="541.8" y="943.2">joins lip to face.</text>
<text class="curl-foam-dim-text curl-caption" x="40.0" y="1116.0">Dashed pale: the crest band BEFORE the bend, drawn only where the bend actually acts. Solid teal: after. The bend never lifts, so the crest lowers as it pitches.</text>
<text class="curl-foam-dim-text curl-caption" x="40.0" y="1137.0">Filled dot: the lip. Hollow dot: the face landing point. The pale curve between them is the connected falling sheet; it is a second surface, not height-field paint.</text>
<rect x="730" y="612" width="430" height="478" fill="#1d2b28" rx="4"/>
<text class="curl-foam-text curl-panel-name" x="750" y="644">A BEND, NOT A ROTATION</text>
<text class="curl-fg-text curl-eq curl-mono" x="750.0" y="674.0">&#952;  = dy / R</text>
<text class="curl-fg-text curl-eq curl-mono" x="750.0" y="697.0">R  = h_crest / mix(0.30, 2.60, plunge)</text>
<text class="curl-fg-text curl-eq curl-mono" x="750.0" y="720.0">dz = dy&#183;(1 &#8722; cos &#952;) / &#952;</text>
<text class="curl-fg-text curl-eq curl-mono" x="750.0" y="743.0">y  = y_bend + dy&#183;sin &#952; / &#952;</text>
<text class="curl-foam-text curl-annot-b" x="750" y="792">It never lifts.</text>
<text class="curl-fg-text curl-annot" x="750" y="813">sin&#160;&#952;/&#952; &#8804; 1 &#8212; no vertex ends higher.</text>
<text class="curl-foam-text curl-annot-b" x="750" y="846">Arc length is preserved.</text>
<text class="curl-fg-text curl-annot" x="750" y="867">the band keeps its thickness.</text>
<text class="curl-foam-text curl-annot-b" x="750" y="900">It overhangs by construction.</text>
<text class="curl-fg-text curl-annot" x="750" y="921">dz&#8242;/dz&#8320; = 1 + sin&#160;&#952;&#183;dh/dz&#8320; folds past 90&#176;.</text>
<line x1="750" y1="934" x2="1140" y2="934" stroke="#6b7f8c" stroke-width="1"/>
<text class="curl-foam-text curl-annot-b" x="750" y="960">FALSIFIED FIRST: A RIGID ROTATION</text>
<text class="curl-fg-text curl-annot" x="750.0" y="982.0">A rotation has a pivot, therefore a lever. It</text>
<text class="curl-fg-text curl-annot" x="750.0" y="1002.0">lifted everything seaward of the pivot and the</text>
<text class="curl-fg-text curl-annot" x="750.0" y="1022.0">crest came out a flat-topped slab (apex 8.8 &#8594;</text>
<text class="curl-fg-text curl-annot" x="750.0" y="1042.0">12.4 m, +41% over the ceiling). A bend has no</text>
<text class="curl-fg-text curl-annot" x="750.0" y="1062.0">pivot, so it has no lever.</text>
<text class="curl-fg-text curl-strip-label" x="40" y="1214">MEASURED</text>
<line x1="40" y1="1226" x2="1160" y2="1226" stroke="#6b7f8c" stroke-width="1"/>
<text class="curl-foam-text curl-stat-n" x="40.0" y="1260">&#8722;41&#8230;&#8722;56%</text>
<text class="curl-foam-dim-text curl-caption" x="40.0" y="1286.0">fold points across six clocks at Sewers,</text>
<text class="curl-foam-dim-text curl-caption" x="40.0" y="1306.0">once the offset ceiling became S/k rather</text>
<text class="curl-foam-dim-text curl-caption" x="40.0" y="1326.0">than a flat 20 m. Crest height unchanged.</text>
<text class="curl-foam-text curl-stat-n" x="424.0" y="1260">132&#176; / 12&#176;</text>
<text class="curl-foam-dim-text curl-caption" x="424.0" y="1286.0">peak overturn at Sewers &#8212; which is the mesh</text>
<text class="curl-foam-dim-text curl-caption" x="424.0" y="1306.0">backstop &#8212; against Shark&#8217;s Cove (&#958; 0.45).</text>
<text class="curl-foam-dim-text curl-caption" x="424.0" y="1326.0">Spilling barely bends. The knob works.</text>
<text class="curl-foam-text curl-stat-n" x="808.0" y="1260">DEFAULT, 26 AUG</text>
<text class="curl-sand-text curl-caption" x="808.0" y="1286.0">bend + aerated lip + connected curtain;</text>
<text class="curl-sand-text curl-caption" x="808.0" y="1306.0">onset grows them behind the head;</text>
<text class="curl-sand-text curl-caption" x="808.0" y="1326.0">Sapp 0.22 removes the detached plate.</text>
</svg>